<?xml version="1.0" standalone="no"?>
<!DOCTYPE svg PUBLIC "-//W3C//DTD SVG 20010904//EN"
 "http://www.w3.org/TR/2001/REC-SVG-20010904/DTD/svg10.dtd">
<svg version="1.0" xmlns="http://www.w3.org/2000/svg"
 width="1280.000000pt" height="1280.000000pt" viewBox="0 0 1280.000000 1280.000000"
 preserveAspectRatio="xMidYMid meet">
<metadata>
Created by potrace 1.16, written by Peter Selinger 2001-2019
</metadata>
<g transform="translate(0.000000,1280.000000) scale(0.100000,-0.100000)"
fill="#000000" stroke="none">
<path d="M5720 12321 c-73 -23 -89 -30 -126 -58 -17 -13 -35 -23 -41 -23 -5 0
-18 -9 -29 -21 -15 -17 -16 -23 -6 -40 20 -31 6 -55 -41 -69 -75 -25 -90 -39
-83 -80 5 -29 2 -41 -14 -55 -11 -10 -23 -15 -27 -12 -3 4 -12 2 -19 -4 -9 -7
-11 -26 -7 -59 4 -39 1 -56 -15 -84 -23 -39 -22 -79 4 -151 9 -25 16 -90 17
-176 3 -111 6 -141 21 -164 23 -35 36 -127 24 -177 -6 -29 -5 -44 6 -59 9 -13
16 -17 21 -10 8 15 24 4 35 -23 8 -20 9 -20 9 5 1 14 6 39 11 55 6 16 12 54
14 84 2 30 12 102 21 159 17 96 19 102 31 80 13 -23 13 -22 8 11 l-5 35 13
-28 c7 -16 18 -28 23 -27 6 0 13 -14 16 -32 5 -24 7 -11 9 42 1 41 5 89 9 105
l7 30 7 -27 c8 -29 27 -39 27 -14 0 34 20 24 26 -13 3 -22 13 -42 21 -45 13
-5 16 0 29 43 2 7 11 10 19 7 10 -4 15 1 15 14 0 11 9 34 20 52 11 18 20 43
20 56 0 36 52 122 93 154 25 20 54 32 83 36 l45 5 -7 -29 c-31 -132 -48 -185
-70 -227 -23 -44 -24 -52 -12 -85 7 -20 13 -39 15 -41 5 -7 35 23 44 44 12 28
32 58 44 68 7 6 6 10 -1 13 -15 6 8 88 36 126 11 15 20 32 20 38 0 6 4 9 9 6
5 -4 12 8 16 25 4 19 15 33 27 37 10 2 17 10 14 17 -2 7 4 12 17 11 23 -1 24
-6 12 -76 -5 -28 -4 -32 5 -20 9 12 13 12 17 2 3 -9 10 -7 24 9 10 12 19 20
19 18 0 -19 -89 -251 -101 -264 -13 -14 -11 -47 3 -43 7 3 15 18 19 34 3 16
13 43 21 59 8 17 18 43 22 59 6 23 9 27 17 15 7 -11 9 -10 10 6 1 11 2 26 2
32 -1 7 3 11 7 8 4 -2 15 13 25 35 10 22 21 40 25 40 8 0 -3 -60 -14 -78 -3
-6 -2 -13 4 -17 5 -3 14 5 19 18 6 14 14 28 20 31 10 7 31 -53 31 -91 0 -13 4
-23 9 -23 4 0 11 33 15 73 9 97 17 137 26 137 13 0 21 -33 10 -40 -6 -4 0 -12
15 -20 20 -10 28 -11 37 -2 9 9 9 12 -2 12 -11 0 -12 2 -1 13 10 10 20 4 50
-30 37 -44 51 -67 92 -163 13 -30 30 -61 36 -68 7 -7 13 -35 13 -62 0 -30 5
-50 13 -53 9 -3 9 -7 -1 -19 -11 -14 -16 -14 -42 -2 -41 21 -225 16 -225 -6 0
-11 22 -18 95 -27 175 -21 200 -37 200 -124 0 -32 11 -128 25 -213 14 -85 22
-162 19 -170 -4 -11 -1 -16 10 -16 9 0 16 3 16 8 0 4 16 16 36 27 44 24 56 53
48 116 -4 29 -1 75 6 111 l14 62 14 -42 c16 -50 36 -54 58 -11 16 33 9 48 -24
49 -10 0 -10 5 -1 22 9 18 8 24 -6 34 -15 11 -16 20 -7 74 6 33 9 67 5 76 -3
8 1 22 9 32 21 25 38 69 38 97 0 14 4 25 9 25 5 0 8 15 7 33 -2 17 4 42 11 54
13 19 12 26 -12 63 -17 26 -29 63 -32 96 -5 42 -9 54 -22 52 -9 -2 -21 -9 -27
-17 -9 -11 -13 -11 -19 -1 -4 7 -2 16 6 22 11 7 11 11 2 15 -7 2 -13 10 -13
17 0 29 -165 163 -295 239 -106 62 -153 83 -283 126 -225 75 -430 102 -574 77
-31 -5 -48 -5 -48 2 0 6 24 13 53 17 51 7 77 19 77 36 0 11 -2 11 -70 -10z"/>
<path d="M5800 11320 c0 -5 -11 -12 -25 -16 -13 -3 -29 -12 -36 -20 -18 -21
15 -29 43 -10 32 23 46 20 50 -11 2 -23 11 -31 45 -42 41 -15 42 -15 71 17
l29 31 -21 20 c-34 32 -156 56 -156 31z"/>
<path d="M6391 11257 c-30 -15 -67 -64 -57 -74 4 -4 16 3 26 17 18 24 75 37
86 19 4 -8 -17 -14 -38 -10 -11 1 -10 -11 1 -28 6 -9 27 -15 58 -15 42 -1 48
2 51 22 2 12 8 22 14 22 6 0 8 -9 5 -20 -4 -17 0 -20 33 -20 22 0 40 5 43 13
3 11 -36 57 -49 57 -3 0 -12 7 -20 15 -19 19 -118 20 -153 2z"/>
<path d="M10270 11041 c0 -87 9 -124 29 -115 9 4 36 13 61 20 25 7 38 13 29
13 -16 1 -49 31 -49 44 0 4 8 7 18 7 10 0 31 13 46 29 l27 28 -68 17 c-96 23
-93 24 -93 -43z"/>
<path d="M5436 10784 c-4 -9 0 -27 9 -40 9 -14 15 -46 15 -82 0 -58 0 -58 -37
-72 l-38 -14 30 -6 30 -6 -30 -7 c-16 -3 -57 -9 -90 -12 -32 -3 -62 -9 -65
-14 -3 -5 -14 -11 -25 -15 -21 -6 -29 -45 -12 -57 8 -6 -33 -81 -57 -104 -24
-23 -67 -45 -88 -46 -22 -1 -21 -2 5 -12 33 -13 34 -17 2 -41 -30 -23 -33 -41
-4 -26 46 25 27 -1 -33 -43 -87 -63 -153 -134 -188 -205 -23 -48 -32 -83 -43
-185 -13 -126 -8 -277 12 -301 14 -18 91 -247 91 -273 0 -16 6 -23 19 -23 10
0 18 -6 17 -12 0 -7 7 -48 18 -90 22 -92 42 -105 32 -23 -12 106 -23 290 -21
355 1 36 10 88 20 115 14 39 18 84 19 200 1 132 4 157 25 206 34 84 89 150
146 178 28 13 52 27 55 31 14 22 254 102 370 124 47 9 108 24 137 32 28 9 60
14 70 13 10 -1 25 1 33 4 31 12 233 14 266 2 19 -6 31 -15 27 -18 -3 -4 1 -7
11 -7 37 0 114 -63 220 -180 62 -69 92 -126 101 -192 9 -79 27 -158 37 -164 4
-3 8 -10 8 -15 0 -6 -4 -7 -10 -4 -5 3 -10 1 -10 -4 0 -6 5 -11 10 -11 6 0 10
-13 10 -30 0 -16 5 -30 10 -30 6 0 10 -6 10 -13 0 -7 8 -17 18 -23 11 -7 32
-54 51 -115 19 -57 45 -138 58 -179 24 -70 31 -103 53 -240 26 -159 29 -172
40 -165 14 8 13 82 -1 107 -17 31 -32 257 -19 273 8 9 7 14 -1 17 -17 6 -31
332 -20 448 4 39 -42 180 -77 237 -31 51 -105 153 -117 163 -8 7 -15 21 -15
32 0 10 -6 34 -14 53 l-15 34 31 -6 c23 -5 29 -3 24 6 -8 12 23 106 51 161 10
19 10 26 1 29 -7 2 -14 -1 -16 -7 -2 -7 -8 -12 -13 -12 -6 0 -27 -11 -47 -25
-47 -32 -78 -33 -38 -1 27 21 27 23 8 21 -12 -1 -25 -4 -28 -8 -12 -12 -22 -8
-27 13 -3 13 -14 20 -29 20 -28 0 -44 27 -54 89 -5 33 -3 39 15 44 23 6 28 39
9 54 -20 16 -103 33 -150 32 -41 -1 -41 -2 -13 -9 29 -8 28 -9 -10 -8 -22 0
-60 -1 -85 -1 -42 -2 -44 -3 -26 -16 11 -8 38 -15 60 -16 23 0 50 -4 61 -8 19
-8 19 -8 -2 -15 -12 -4 -25 -16 -28 -27 -4 -10 -15 -19 -26 -19 -23 0 -24 -6
-4 -26 18 -18 20 -49 3 -38 -8 5 -9 0 -5 -15 4 -17 2 -21 -11 -17 -9 3 -46 10
-82 15 -36 5 -73 12 -82 16 -13 5 -18 2 -18 -10 0 -20 -25 -14 -85 20 -22 12
-52 25 -67 29 -29 7 -36 20 -18 31 6 3 10 12 10 19 0 11 -15 13 -63 9 -41 -4
-72 -1 -87 7 -21 11 -22 10 -18 -8 4 -15 1 -18 -13 -15 -11 3 -19 9 -19 13 0
4 -7 11 -16 14 -14 5 -15 4 -4 -9 7 -8 8 -15 2 -15 -12 0 -38 30 -26 30 5 0 2
6 -7 13 -9 7 -24 37 -35 67 -14 41 -19 49 -22 32 -4 -29 -22 -18 -22 14 0 27
-24 33 -34 8z"/>
<path d="M1841 9989 c-13 -5 -39 -8 -57 -7 -19 1 -39 -3 -46 -10 -9 -9 -8 -12
5 -12 9 0 24 -11 33 -26 14 -20 15 -32 6 -60 -9 -30 -8 -34 9 -34 24 0 35 -40
19 -69 -13 -24 -5 -61 13 -61 17 0 37 46 25 58 -15 15 8 50 34 54 25 4 37 28
14 28 -12 0 -16 10 -16 35 0 41 6 43 31 13 11 -11 19 -16 19 -10 0 6 -6 17
-13 24 -8 7 -19 23 -26 36 -11 20 -9 22 13 22 33 0 42 16 13 24 -29 8 -47 7
-76 -5z"/>
<path d="M6216 9539 c-110 -6 -132 -10 -149 -28 -19 -18 -19 -23 -7 -46 12
-23 19 -26 45 -20 50 11 302 17 286 6 -10 -6 0 -8 30 -7 24 2 48 -2 52 -8 5
-6 5 0 2 14 -9 36 -79 100 -107 99 -13 -1 -81 -5 -152 -10z"/>
<path d="M5433 9418 c-50 -17 -64 -27 -74 -51 -11 -26 -16 -29 -48 -23 -25 4
-31 2 -21 -4 13 -9 7 -14 -12 -11 -5 0 -8 -6 -8 -14 0 -17 25 -20 35 -5 3 6
21 10 39 10 18 0 41 7 52 15 10 8 29 15 40 15 12 0 27 7 34 15 7 8 29 15 50
15 20 0 62 5 94 11 54 11 55 12 35 27 -35 24 -144 24 -216 0z"/>
<path d="M6166 9360 c-60 -24 -72 -35 -81 -77 -6 -30 -4 -33 16 -33 22 0 22 0
3 15 -16 12 -16 14 -3 15 9 0 24 9 34 20 18 19 41 28 31 12 -3 -5 2 -18 10
-30 12 -17 25 -22 58 -22 45 0 56 10 56 51 0 22 32 26 49 6 8 -10 7 -17 -2
-26 -10 -11 -6 -12 21 -6 18 4 32 3 32 -3 0 -12 37 -22 55 -15 20 7 -14 63
-53 86 -49 29 -165 32 -226 7z"/>
<path d="M5520 9278 c0 -8 -12 -15 -31 -16 -48 -4 -123 -40 -155 -74 l-29 -31
25 7 c34 9 54 14 62 15 4 1 10 10 13 21 3 11 12 20 20 20 8 0 17 -9 20 -20 5
-17 15 -20 60 -20 48 0 54 2 57 23 4 27 39 35 58 12 7 -8 20 -15 29 -15 11 0
7 8 -14 28 -16 15 -33 26 -37 25 -4 -2 -5 4 -2 12 5 11 -1 15 -19 15 -14 0
-32 3 -41 6 -10 4 -16 1 -16 -8z"/>
<path d="M6270 8556 c-18 -10 -30 -11 -44 -4 -13 7 -21 7 -26 -2 -6 -9 -9 -9
-15 0 -6 9 -10 9 -16 -1 -7 -11 -9 -11 -9 -1 0 7 -4 11 -9 8 -4 -3 -23 -8 -42
-10 -19 -3 -65 -12 -104 -21 -38 -8 -74 -15 -80 -16 -5 0 1 -4 13 -10 13 -5
28 -6 33 -3 15 9 159 11 159 2 0 -4 14 1 30 10 25 14 32 15 39 4 4 -8 12 -13
17 -12 18 3 14 -19 -7 -39 -33 -30 -17 -36 33 -11 81 41 122 98 82 114 -21 8
-25 7 -54 -8z"/>
<path d="M6704 8409 c-12 -16 -44 -84 -44 -94 0 -4 -18 -43 -40 -87 -23 -46
-40 -96 -40 -115 0 -18 -5 -33 -11 -33 -7 0 -9 -11 -5 -30 3 -19 2 -29 -4 -25
-12 7 -33 -42 -25 -56 4 -5 -1 -6 -11 -2 -13 5 -15 2 -9 -15 3 -12 2 -22 -3
-22 -5 0 -47 -37 -94 -82 -89 -87 -148 -138 -158 -138 -3 0 -11 -10 -19 -22
-14 -22 -13 -22 5 -8 10 8 21 17 24 20 3 3 32 28 65 55 85 70 225 196 252 225
12 14 23 35 23 47 0 25 15 39 25 23 14 -23 20 3 23 92 2 51 6 96 10 100 17 17
95 -11 135 -48 67 -63 97 -98 97 -114 0 -10 8 -5 21 12 26 35 71 58 133 69 27
5 54 13 60 19 8 8 -22 10 -105 8 -99 -3 -118 -1 -133 15 -10 9 -27 17 -39 17
-15 0 -18 3 -9 8 9 7 7 13 -9 28 -20 17 -22 17 -16 2 4 -10 2 -18 -3 -18 -6 0
-10 11 -10 24 0 13 -7 29 -15 36 -13 11 -13 14 2 26 17 12 17 14 -2 28 -11 8
-25 16 -31 16 -5 0 -14 12 -20 27 -7 21 -11 24 -20 12z"/>
<path d="M6165 7517 c18 -14 17 -15 -20 -26 -63 -18 -198 -30 -212 -18 -9 6
-13 6 -13 -2 0 -6 6 -11 13 -11 8 0 8 -3 -2 -9 -11 -7 -8 -9 10 -10 54 -1 79
-7 91 -18 16 -17 28 -16 28 3 0 8 5 12 10 9 6 -4 8 -11 5 -16 -4 -5 -1 -9 4
-9 6 0 11 -5 11 -11 0 -8 -5 -8 -15 1 -12 10 -15 10 -15 -1 0 -8 -9 -4 -23 9
-26 25 -36 28 -33 10 3 -24 17 -37 31 -32 7 3 18 -4 24 -15 7 -12 17 -18 26
-15 8 4 15 2 15 -4 0 -6 3 -19 7 -29 3 -10 3 -15 -2 -11 -4 4 -15 2 -23 -4
-11 -10 -16 -8 -24 7 -6 11 -32 40 -57 64 -25 24 -45 47 -44 52 1 4 -24 6 -57
5 -33 -2 -63 0 -65 4 -3 5 5 6 17 4 21 -4 21 -4 -1 6 -17 7 -34 7 -53 1 -16
-6 -35 -8 -43 -5 -20 8 -27 34 -10 40 17 7 20 24 4 24 -22 0 -134 -62 -178
-99 -48 -41 -88 -118 -77 -147 5 -12 14 -5 39 28 42 54 100 89 147 85 28 -2
35 2 34 15 -1 10 2 15 7 12 5 -3 12 2 15 10 6 17 24 22 24 8 0 -5 -10 -18 -21
-31 l-21 -23 31 -31 c17 -18 44 -40 61 -50 l30 -18 0 27 c0 38 69 103 105 99
15 -1 32 -8 38 -15 9 -10 9 -11 -2 -5 -20 11 -61 15 -61 5 0 -4 7 -11 16 -14
8 -3 12 -2 9 4 -3 6 -2 10 4 10 5 0 13 -5 16 -11 4 -6 13 -8 21 -5 7 3 16 1
19 -4 4 -6 -1 -10 -9 -10 -9 0 -16 -4 -16 -10 0 -5 6 -9 13 -7 7 1 11 -7 9
-23 -1 -17 1 -21 7 -12 6 11 10 10 15 -4 4 -10 4 -15 0 -12 -8 9 -50 -12 -84
-42 -14 -12 -35 -30 -47 -41 -13 -10 -23 -26 -23 -35 0 -15 10 -13 40 11 16
12 92 37 97 31 2 -2 -17 -11 -42 -20 -50 -19 -55 -30 -25 -46 28 -15 75 -119
61 -133 -19 -19 -12 -31 7 -14 18 16 19 15 17 -17 0 -19 2 -33 5 -31 3 2 21
-19 40 -47 39 -56 53 -48 21 13 -12 22 -21 47 -21 57 0 13 -2 14 -9 3 -6 -10
-12 -4 -21 23 -6 20 -9 43 -6 51 3 8 1 28 -5 44 -14 40 10 87 54 104 9 4 20
20 23 37 4 16 13 30 20 30 8 0 14 4 14 10 0 5 22 24 49 42 28 17 48 35 45 39
-7 12 27 18 89 14 31 -2 57 0 57 5 0 15 -91 100 -134 124 -23 13 -54 27 -71
30 -28 7 -29 6 -10 -7z"/>
<path d="M5815 6740 c-19 -21 -18 -25 28 -75 11 -11 36 -45 57 -75 21 -30 47
-66 59 -79 20 -23 23 -24 38 -8 15 15 14 20 -18 64 -19 26 -48 67 -64 90 -17
23 -36 42 -43 43 -7 0 -10 5 -7 10 3 6 1 10 -5 10 -6 0 -9 3 -7 8 3 4 -1 12
-8 19 -10 9 -17 8 -30 -7z"/>
<path d="M5753 6208 c-23 -30 -26 -42 -5 -24 25 21 30 11 7 -14 -13 -14 -10
-21 26 -65 22 -27 45 -58 51 -69 6 -11 28 -42 48 -68 38 -47 38 -47 56 -27 18
19 18 21 1 30 -9 6 -17 17 -17 25 0 9 -5 12 -12 8 -7 -4 -10 -4 -6 1 7 7 -44
88 -68 110 -7 6 -25 32 -41 58 -23 37 -32 45 -40 35z"/>
<path d="M7956 5768 c-47 -27 -115 -108 -146 -173 -18 -38 -38 -73 -43 -77
-19 -12 -41 9 -67 61 -27 55 -40 64 -41 29 -1 -63 -11 -124 -23 -147 -17 -31
-46 -190 -46 -247 0 -23 6 -54 14 -69 29 -55 39 -57 274 -56 119 1 236 6 261
12 54 12 112 30 126 40 6 4 84 17 175 29 231 30 332 59 372 107 27 33 9 213
-27 249 -45 46 -156 73 -226 54 -22 -6 -119 -13 -216 -15 l-176 -4 -81 -42
c-44 -23 -102 -53 -128 -67 -54 -28 -74 -24 -84 14 -13 50 21 128 82 189 30
30 61 55 67 55 7 0 23 7 36 17 26 17 98 23 146 10 28 -7 29 -6 11 8 -10 8 -22
12 -26 10 -4 -3 -30 2 -56 10 -58 17 -151 19 -178 3z"/>
<path d="M5803 5718 c-17 -19 -19 -25 -8 -35 7 -6 16 -9 21 -5 4 4 4 1 0 -5
-4 -8 6 -29 24 -50 17 -21 52 -68 79 -105 l47 -68 35 37 c33 35 34 35 4 17
-28 -18 -29 -18 -22 0 5 13 3 17 -7 13 -10 -4 -13 -1 -10 7 3 7 -9 27 -25 45
-16 18 -30 34 -30 36 -1 3 -1 8 -1 13 -1 9 -62 78 -72 80 -5 1 -11 2 -15 2 -5
0 -3 4 4 8 7 4 9 13 4 20 -5 9 -13 6 -28 -10z"/>
<path d="M4111 5253 c-14 -3 -34 -11 -45 -18 -12 -7 -36 -16 -53 -20 -21 -4
-39 -17 -50 -36 -10 -16 -21 -29 -27 -29 -28 0 -91 -119 -72 -138 6 -5 36 59
36 77 0 17 61 60 101 71 43 12 149 10 149 -2 0 -5 9 -8 20 -8 10 0 41 -12 67
-26 81 -45 113 -87 113 -148 0 -58 -22 -69 -195 -95 -35 -5 -61 -14 -64 -22
-7 -22 -79 -87 -119 -108 -74 -37 -248 -90 -312 -95 -56 -4 -68 -9 -87 -33
-21 -26 -28 -58 -24 -108 1 -11 13 -43 27 -72 23 -49 28 -52 70 -59 25 -3 73
-3 107 0 141 15 229 30 213 36 -9 3 8 6 39 6 31 0 59 4 63 9 4 6 16 12 26 13
11 2 48 17 83 34 50 23 75 44 123 103 59 72 94 95 146 95 13 0 24 -4 24 -10 0
-17 61 2 88 26 13 13 28 24 32 24 5 0 18 17 31 38 43 71 42 197 -2 284 -22 42
-24 79 -7 96 20 20 -18 26 -61 9 -38 -16 -39 -15 -65 12 -18 18 -26 38 -26 62
0 45 -17 21 -26 -38 -10 -66 -28 -74 -70 -30 -20 20 -55 47 -78 60 -39 22
-124 49 -143 46 -4 -1 -19 -4 -32 -6z"/>
<path d="M5733 5147 c-18 -19 -19 -24 -7 -35 8 -7 20 -10 27 -6 9 6 9 4 -1 -8
-11 -14 -9 -19 14 -37 15 -12 24 -21 20 -21 -4 0 18 -34 49 -75 30 -41 55 -77
55 -81 0 -3 -10 -2 -22 1 -16 4 -19 4 -9 -3 7 -5 10 -15 6 -21 -4 -7 -27 16
-61 61 -30 40 -54 76 -54 80 0 5 -5 8 -11 8 -9 0 33 -65 91 -137 l25 -32 45
40 c28 25 40 42 33 46 -7 2 -13 11 -13 18 0 8 -6 18 -13 22 -16 10 -106 125
-134 170 l-20 33 -20 -23z"/>
<path d="M6370 5079 c-19 -4 -44 -6 -55 -3 -14 4 -16 2 -7 -4 17 -11 -27 -32
-69 -32 -20 0 -28 -4 -23 -12 4 -7 3 -8 -5 -4 -7 5 -40 -10 -79 -35 -37 -23
-85 -53 -107 -67 -22 -14 -61 -42 -86 -64 -48 -39 -66 -48 -53 -25 4 7 3 9 -2
4 -5 -5 -9 -14 -9 -20 0 -7 -8 -11 -18 -9 -10 2 -17 -3 -17 -13 0 -10 -5 -13
-12 -9 -8 5 -9 2 -5 -10 5 -12 2 -16 -11 -14 -11 2 -17 -3 -16 -14 1 -10 -3
-18 -10 -18 -6 0 -4 -5 4 -10 8 -5 10 -10 5 -10 -18 0 -77 -59 -70 -70 3 -6
-1 -7 -10 -4 -11 5 -14 2 -8 -12 5 -13 3 -16 -9 -11 -11 4 -18 -2 -22 -19 -5
-19 -11 -24 -25 -19 -11 3 -21 0 -24 -9 -4 -10 -1 -13 9 -9 14 5 14 3 3 -16
-15 -22 -29 -28 -29 -11 0 6 -4 10 -8 10 -5 0 -9 -7 -9 -15 0 -8 4 -12 9 -9 4
3 8 1 8 -5 0 -5 -5 -13 -10 -16 -6 -4 -8 -16 -5 -28 5 -17 4 -19 -4 -7 -9 13
-12 12 -24 -4 -8 -11 -19 -16 -24 -13 -6 4 -14 0 -17 -9 -3 -8 -2 -12 4 -9 19
11 10 -12 -13 -36 -26 -28 -67 -91 -85 -131 -6 -16 -17 -28 -24 -28 -9 0 -9 4
2 11 13 9 12 10 -2 5 -23 -7 -32 9 -13 24 10 9 15 9 15 1 0 -6 5 -11 12 -11 7
0 6 6 -4 18 -9 9 -17 23 -19 30 -3 9 -11 6 -27 -11 l-23 -25 25 -27 c30 -32
30 -34 14 -89 -12 -44 -34 -76 -52 -76 -7 0 -7 3 1 8 8 5 6 13 -7 30 l-19 23
2 -38 c1 -21 6 -41 11 -44 15 -11 6 -245 -10 -271 -5 -7 -8 -22 -9 -33 0 -12
-6 -19 -15 -17 -12 3 -12 1 -3 -9 14 -14 7 -96 -10 -116 -6 -9 -5 -13 4 -13
12 0 12 -2 1 -9 -15 -9 -31 -65 -38 -131 -3 -24 -13 -54 -23 -65 -11 -11 -22
-36 -26 -55 -4 -19 -12 -41 -17 -47 -6 -7 -8 -22 -5 -33 3 -11 1 -23 -4 -26
-5 -3 -9 -38 -10 -77 -1 -53 -3 -66 -9 -47 -6 17 -8 6 -5 -37 2 -35 0 -65 -5
-68 -5 -3 -7 -11 -4 -18 3 -8 -33 -36 -96 -73 -62 -37 -100 -66 -101 -76 -2
-22 -3 -28 -14 -51 -12 -28 2 -105 26 -138 18 -25 27 -29 67 -29 47 1 47 1 20
15 -24 13 -26 19 -21 57 3 24 11 52 16 63 6 11 10 23 9 27 -3 10 74 68 82 61
3 -3 6 0 6 7 0 7 2 11 5 8 10 -9 -7 -38 -19 -32 -6 3 -2 -2 8 -10 18 -14 18
-16 3 -16 -15 0 -17 -9 -14 -62 5 -72 1 -88 -19 -88 -11 0 -9 -6 6 -22 12 -14
16 -24 10 -28 -7 -4 -5 -12 6 -20 14 -13 16 -11 12 15 -2 23 1 30 16 33 15 3
18 0 13 -19 -3 -12 1 -35 9 -50 8 -17 16 -72 19 -136 3 -59 8 -128 12 -152 4
-31 1 -46 -8 -52 -11 -7 -11 -9 -1 -9 7 0 15 7 19 16 7 20 40 12 102 -24 25
-15 51 -27 58 -28 7 -1 38 -17 70 -35 32 -18 60 -32 63 -31 2 1 4 39 3 85 -1
67 0 75 7 42 5 -22 9 -67 10 -100 1 -43 4 -54 10 -40 8 19 9 19 9 -2 1 -13 7
-23 14 -23 8 0 12 21 11 72 l-1 73 4 -67 c3 -53 8 -70 22 -77 24 -13 120 -20
127 -10 3 5 -2 9 -10 9 -8 0 -18 5 -22 12 -4 7 -3 8 4 4 16 -10 16 -9 -14 76
-14 40 -27 100 -29 133 l-3 60 18 -60 c10 -33 23 -75 28 -92 6 -18 8 -33 4
-33 -4 0 -2 -4 3 -8 19 -13 56 -72 51 -80 -2 -4 4 -14 16 -21 18 -11 19 -10
13 11 l-7 23 21 -24 c11 -13 21 -30 21 -37 0 -7 27 -27 60 -45 134 -71 151
-118 70 -193 -53 -50 -82 -65 -145 -76 l-40 -7 48 -3 c26 -1 59 -3 75 -4 30
-1 149 -76 199 -124 33 -32 83 -120 83 -146 0 -8 4 -16 8 -18 8 -3 72 -96 72
-104 0 -3 9 -17 20 -31 11 -14 20 -38 20 -54 0 -20 14 -44 48 -80 26 -28 55
-63 64 -78 30 -45 50 -131 51 -228 2 -81 4 -93 19 -93 11 0 15 5 12 15 -5 11
0 13 25 5 16 -4 39 -6 51 -3 14 4 20 1 20 -11 0 -10 5 -14 11 -11 5 4 19 -1
30 -11 10 -9 19 -14 19 -10 0 4 7 1 15 -8 8 -8 15 -19 15 -25 0 -6 24 -22 53
-35 28 -14 72 -46 97 -71 30 -30 52 -45 70 -45 65 0 216 -59 277 -107 23 -18
48 -33 55 -33 22 0 61 49 88 108 13 28 29 52 37 52 16 0 17 -16 3 -25 -8 -5
-7 -11 1 -21 6 -7 15 -11 20 -8 23 14 59 -150 59 -264 0 -32 6 -52 21 -68 20
-22 49 -109 49 -151 0 -20 5 -23 45 -23 33 0 45 4 45 15 0 8 4 15 10 15 5 0 7
-7 3 -15 -5 -14 9 -15 108 -13 110 3 114 4 117 25 2 13 -2 23 -8 23 -7 0 -10
8 -7 20 3 11 1 20 -4 20 -5 0 -9 14 -9 31 0 17 -4 28 -10 24 -6 -3 -7 1 -4 10
4 8 2 21 -4 28 -5 6 -15 32 -22 57 -7 25 -15 47 -19 50 -8 6 -33 111 -28 116
4 4 96 -260 122 -348 9 -34 22 -58 30 -58 10 0 10 12 -4 58 -28 91 -110 312
-133 356 -6 12 -6 22 0 28 7 7 12 -2 17 -24 4 -18 16 -45 27 -60 11 -16 16
-33 12 -39 -5 -8 -3 -9 6 -4 10 6 12 4 7 -8 -3 -9 -1 -17 4 -19 5 -2 11 -13
12 -25 0 -12 5 -19 9 -17 4 3 8 -16 9 -43 0 -26 3 -42 6 -36 3 10 9 9 20 -3
14 -13 14 -17 2 -25 -12 -8 -12 -10 1 -18 8 -6 14 -25 13 -48 l0 -38 13 30
c13 29 13 28 7 -17 l-6 -48 51 0 c31 0 52 5 55 13 4 9 6 9 6 0 1 -8 16 -13 42
-13 l42 0 -6 60 c-4 33 -15 72 -24 87 -11 17 -13 24 -5 19 11 -7 12 3 7 50
-11 108 -15 133 -25 159 -6 15 -10 47 -11 73 -1 59 -12 98 -27 95 -8 -2 -12
19 -12 66 0 37 -3 96 -7 131 -4 44 -3 61 4 57 7 -5 9 1 5 15 -3 14 -1 19 6 14
7 -4 9 -45 7 -119 -2 -61 -2 -102 1 -90 8 34 23 28 22 -9 -2 -41 19 -195 42
-318 8 -41 9 -40 4 15 -11 147 -13 189 -9 175 2 -8 7 -41 10 -73 4 -31 10 -55
14 -52 5 2 6 -6 4 -18 -3 -13 0 -48 7 -78 10 -49 14 -81 18 -155 1 -14 6 -23
10 -20 4 2 6 -12 3 -32 -5 -44 -6 -43 -30 78 -11 52 -20 83 -20 68 -1 -14 -4
-35 -7 -45 -5 -14 -4 -15 4 -4 7 10 12 -2 17 -45 11 -99 15 -104 85 -104 l61
0 -7 48 c-3 26 -10 55 -15 64 -5 9 -9 46 -9 82 0 40 -4 66 -11 66 -5 0 -8 4
-5 8 3 5 -2 32 -11 61 -13 45 -13 55 -2 62 13 8 5 13 -13 10 -11 -1 -10 23 1
34 11 12 -6 105 -22 120 -6 7 -8 7 -4 0 3 -6 2 -17 -3 -25 -4 -7 -4 -24 1 -37
5 -14 5 -23 -1 -23 -12 0 -11 -12 -14 163 -1 81 2 147 7 147 4 0 6 10 2 23 -5
20 -5 20 10 -3 12 -20 15 -21 11 -5 -3 11 -10 49 -16 85 -6 36 -14 76 -17 89
-4 17 -2 22 6 17 15 -10 14 17 -1 33 -10 9 -12 55 -10 174 1 91 -3 190 -9 226
-9 49 -9 65 0 71 8 4 12 42 13 114 0 87 3 105 13 96 10 -8 15 -8 20 0 4 6 15
8 25 5 10 -3 31 -2 47 2 28 8 28 8 -10 13 -49 7 -43 25 8 24 35 -1 101 -20
115 -34 12 -12 70 -50 76 -50 4 0 29 -13 55 -30 27 -16 55 -27 63 -24 8 3 17
0 22 -7 5 -8 3 -10 -7 -4 -8 5 -5 -1 5 -13 11 -12 27 -22 36 -22 19 0 63 -34
54 -43 -3 -3 4 -8 15 -12 12 -3 21 -10 21 -15 0 -5 14 -15 30 -24 17 -8 30
-11 30 -7 0 11 -34 41 -47 41 -6 0 -23 15 -39 34 -16 18 -65 59 -109 90 -44
31 -85 61 -92 66 -7 6 -15 10 -17 10 -3 0 -32 17 -63 37 -79 51 -113 71 -149
88 -17 8 -52 30 -77 49 l-46 35 -6 -57 c-10 -95 -22 -102 -17 -10 5 99 -3 162
-20 152 -7 -4 -8 -3 -4 5 7 11 -13 71 -24 71 -3 0 -6 10 -7 22 -1 11 -6 24
-11 27 -5 3 -19 25 -32 49 -18 32 -21 45 -12 51 9 5 9 14 0 39 -7 18 -16 32
-20 32 -4 0 -8 5 -8 10 0 6 -8 20 -18 30 -21 22 -45 133 -36 166 3 12 1 25 -6
29 -8 5 -8 10 0 20 8 9 8 15 0 20 -5 3 -10 32 -10 63 0 39 3 52 10 42 6 -9 9
18 9 80 0 52 5 108 11 125 7 18 7 31 2 33 -6 2 -7 38 -3 90 7 108 7 207 -2
250 -4 20 -3 31 3 27 5 -3 12 -28 16 -56 4 -27 9 -48 11 -45 8 7 -15 165 -29
203 -10 26 -10 38 0 53 6 11 9 25 7 32 -3 7 -12 60 -19 118 -8 58 -19 124 -24
147 -5 23 -6 40 -2 38 4 -2 13 -32 20 -67 8 -34 16 -56 18 -49 7 20 -51 228
-77 279 -5 9 -26 58 -46 107 -53 126 -88 199 -97 203 -4 2 -8 9 -8 16 0 11
-77 169 -120 247 -85 153 -307 385 -416 435 -30 14 -52 29 -49 33 3 5 -2 12
-11 15 -8 3 -12 2 -9 -4 10 -16 -3 -12 -73 25 -36 20 -73 33 -81 30 -9 -3 -12
-3 -9 1 9 8 -10 26 -45 42 -31 13 -49 16 -30 4 6 -4 -44 -8 -110 -9 -67 0
-133 -1 -147 -1 -100 -2 -149 1 -144 9 3 5 4 9 2 8 -2 -1 -19 -5 -38 -10z
m270 -400 c0 -11 5 -17 10 -14 6 3 10 0 10 -9 0 -8 -6 -17 -12 -19 -7 -3 -3
-6 10 -6 13 -1 22 -7 21 -13 -5 -28 21 -68 43 -68 21 0 21 0 2 -15 -18 -14
-18 -14 2 -9 21 6 41 -3 119 -51 22 -14 46 -28 53 -31 6 -4 12 -13 12 -20 0
-8 7 -17 15 -20 8 -3 17 -16 21 -27 7 -22 7 -22 14 -2 7 18 9 17 19 -10 10
-23 14 -26 21 -15 8 13 12 12 24 -5 25 -32 20 -52 -6 -29 l-23 19 23 -26 c12
-14 22 -29 22 -33 0 -5 12 -17 26 -28 14 -12 30 -32 35 -45 5 -14 18 -27 28
-30 13 -3 17 -11 14 -26 -4 -17 -2 -19 5 -8 8 11 15 4 31 -29 12 -24 21 -50
21 -57 0 -8 4 -12 9 -9 5 3 12 -1 15 -10 3 -8 2 -12 -4 -9 -6 4 -8 -2 -6 -12
9 -42 19 -63 30 -63 6 -1 24 -27 40 -60 17 -33 39 -70 51 -82 81 -89 117 -217
145 -513 11 -107 14 -130 40 -300 13 -88 8 -245 -11 -304 -27 -82 -62 -177
-70 -191 -5 -8 -15 -27 -22 -41 -13 -27 -48 -76 -84 -114 -14 -16 -17 -26 -10
-29 7 -2 5 -5 -4 -5 -8 -1 -28 -19 -45 -41 -16 -22 -32 -40 -36 -40 -4 0 -26
-20 -50 -46 -24 -25 -50 -46 -58 -47 -8 -2 -20 -6 -27 -10 -6 -4 -14 -3 -18 3
-12 19 -24 12 -110 -69 -39 -37 -147 -94 -205 -109 -55 -14 -247 -22 -275 -12
-11 4 -33 10 -49 14 -25 6 -28 5 -23 -13 4 -15 0 -21 -12 -21 -26 0 -84 22
-99 37 -7 7 -20 13 -28 13 -8 0 -14 6 -14 13 0 6 -17 23 -38 36 -39 26 -132
119 -132 133 0 4 -7 8 -15 8 -8 0 -32 19 -53 41 -46 52 -132 176 -132 193 0 7
-7 21 -15 32 -19 25 -19 38 1 30 17 -6 14 0 -20 49 -48 68 -67 132 -93 310
-25 173 -26 239 -5 350 11 55 19 115 17 133 -1 18 4 37 12 43 8 7 13 34 13 73
1 34 7 72 15 86 19 33 19 50 0 50 -16 0 -16 47 1 195 9 76 95 367 115 390 5 5
9 15 9 22 0 17 46 83 95 136 27 29 71 57 90 57 8 0 15 5 15 11 0 5 4 8 9 4 5
-3 43 12 84 33 41 22 83 42 94 46 26 9 57 29 77 49 10 9 23 17 31 17 7 0 24
12 37 28 31 36 78 69 112 78 15 3 25 9 22 12 -3 3 -1 11 5 19 9 10 8 13 -1 13
-9 0 -10 3 -1 13 6 8 8 17 4 20 -3 4 -1 7 5 7 7 0 12 -9 12 -21z m271 -2981
c5 -7 9 -25 9 -39 0 -15 8 -37 19 -50 10 -13 16 -31 13 -39 -3 -8 5 -4 17 9
18 20 21 21 21 6 0 -14 3 -15 14 -6 12 10 15 7 18 -16 l4 -28 13 27 c14 27 50
45 52 25 1 -7 5 -1 9 13 5 17 9 -9 10 -75 0 -55 3 -120 6 -144 l4 -44 -22 29
c-12 16 -27 32 -33 36 -7 5 -6 14 3 28 12 19 11 20 -8 8 -11 -7 -20 -17 -20
-23 0 -5 -15 -20 -33 -32 -22 -16 -26 -23 -14 -23 9 0 17 -5 17 -11 0 -16 -21
-52 -41 -71 -20 -20 -12 -25 -88 57 -10 11 -22 30 -25 41 -4 12 -20 32 -36 44
-44 34 -40 64 11 79 38 12 40 13 22 27 -15 12 -16 15 -3 23 17 11 17 10 -33
36 -21 11 -33 21 -28 23 5 2 28 -8 52 -21 24 -13 51 -22 59 -19 13 4 13 3 2
-11 -8 -9 -20 -13 -28 -10 -17 6 -18 -6 0 -29 16 -22 25 -22 48 -2 24 23 50 2
42 -32 -4 -14 -2 -24 5 -24 6 0 8 7 4 17 -5 12 -2 15 10 10 9 -3 17 -3 17 1 0
10 -93 97 -105 98 -22 2 -55 17 -55 24 0 4 -30 22 -67 41 -116 58 -108 74 30
66 67 -3 102 -10 108 -19z m169 -383 c5 3 10 0 10 -7 0 -8 9 -22 21 -31 15
-13 19 -27 17 -54 -2 -22 3 -51 14 -72 10 -19 18 -41 18 -48 0 -17 -40 -16
-64 2 -11 8 -28 15 -38 15 -10 0 -33 24 -56 58 l-38 58 40 46 c30 35 44 44 53
37 7 -6 17 -8 23 -4z"/>
<path d="M6905 3532 c-72 -20 -135 -59 -154 -96 -17 -31 -8 -45 19 -28 11 7
28 12 37 13 11 0 13 3 5 6 -8 3 1 15 24 34 20 16 40 29 43 29 3 0 18 -14 32
-32 27 -32 27 -32 75 -20 27 7 64 15 82 17 18 3 36 6 40 7 4 1 15 -2 25 -7 21
-9 87 2 87 15 0 6 -4 10 -8 10 -5 0 -23 13 -41 29 -17 16 -46 31 -63 35 -53
10 -141 5 -203 -12z"/>
<path d="M5990 3448 c-24 -13 -46 -30 -48 -38 -3 -9 5 -6 21 8 22 21 96 47
105 37 2 -2 -27 -18 -64 -37 -75 -37 -92 -58 -46 -58 18 0 35 8 43 20 8 11 31
26 52 35 37 15 37 15 37 -9 0 -37 25 -56 73 -55 45 0 79 10 78 22 -3 22 1 27
15 27 11 0 14 -6 9 -22 -6 -17 -4 -20 10 -15 9 4 25 2 35 -3 34 -18 30 6 -8
42 -71 69 -223 91 -312 46z"/>
<path d="M6648 2698 c-16 -6 -25 -15 -22 -23 8 -20 -7 -25 -112 -31 -54 -3
-101 -7 -106 -10 -4 -3 -8 -1 -8 4 0 8 -50 0 -172 -30 -23 -5 -38 -15 -38 -24
0 -11 4 -12 19 -5 25 14 78 -4 109 -35 15 -16 33 -24 55 -23 29 1 30 2 8 8
-36 10 -39 31 -4 31 22 0 25 2 13 10 -13 8 -13 10 1 10 9 0 19 6 22 14 8 21
153 44 170 27 7 -7 14 -7 23 0 14 11 134 25 209 24 l49 0 9 -43 c7 -36 12 -42
34 -42 23 0 73 42 73 62 0 22 37 48 68 48 29 0 33 2 22 15 -9 11 -37 14 -118
14 -59 0 -145 2 -192 4 -47 2 -97 0 -112 -5z"/>
<path d="M5617 5042 c-9 -10 -17 -23 -17 -29 0 -15 36 -54 44 -46 3 3 6 0 6
-9 0 -8 9 -23 20 -33 11 -10 20 -22 20 -27 0 -13 81 -128 90 -128 4 0 15 9 25
20 16 18 16 20 1 35 -9 9 -16 20 -16 23 0 4 -10 18 -23 32 -13 14 -32 38 -41
53 -10 15 -22 24 -27 21 -5 -3 -7 1 -4 8 3 7 -5 24 -18 38 -13 14 -28 33 -33
43 -10 17 -11 17 -27 -1z"/>
<path d="M5244 1598 c-9 -29 -86 -110 -145 -154 -27 -19 -68 -65 -93 -102 -24
-37 -56 -80 -70 -97 -14 -16 -26 -33 -26 -37 0 -13 18 -9 24 5 8 17 -2 -52
-24 -163 -19 -101 -25 -153 -36 -317 l-7 -102 68 -71 c38 -38 74 -70 82 -70
21 0 16 10 -27 52 -22 22 -40 46 -40 53 0 6 -6 25 -14 41 -7 16 -16 54 -19 84
-6 53 -5 54 8 25 18 -40 19 -17 1 37 -34 105 -30 174 14 215 23 21 27 33 24
62 -4 28 -2 33 8 23 17 -17 29 -15 22 3 -7 18 7 19 54 5 19 -5 47 -6 63 -3 27
5 28 7 12 18 -10 7 -27 15 -38 18 -11 2 12 6 50 7 39 2 58 5 43 7 -39 6 -35
29 6 44 19 7 33 16 31 20 -3 4 2 9 10 13 8 3 15 17 15 30 0 14 7 31 15 38 46
38 64 62 54 74 -7 9 -4 18 9 31 11 10 29 36 40 59 20 40 21 41 1 57 -10 9 -25
17 -33 17 -7 0 -21 9 -30 19 -18 19 -31 21 -53 8 -7 -5 -13 -5 -13 -2 0 10 27
35 32 29 3 -3 3 7 1 21 -6 31 -10 31 -19 3z"/>
<path d="M4601 1323 c0 -7 -7 -13 -14 -13 -38 0 -48 -321 -13 -415 19 -50 20
-82 4 -89 -7 -3 11 -4 40 -2 45 3 58 -1 82 -20 15 -13 37 -24 48 -24 11 0 22
-6 25 -12 10 -28 16 3 23 103 6 91 4 109 -11 132 -19 30 -14 47 14 40 16 -4
20 3 26 44 4 26 13 63 21 82 18 43 18 52 -1 45 -8 -3 -40 12 -73 34 -32 21
-68 42 -80 46 -12 4 -22 11 -22 16 0 11 -29 40 -41 40 -5 0 -10 -12 -10 -27
l-1 -28 -8 30 c-4 17 -8 24 -9 18z"/>
<path d="M6140 1096 c-12 -6 -34 -32 -48 -58 -33 -58 -25 -77 39 -93 24 -7 54
-17 65 -23 29 -15 44 2 44 50 0 95 -46 152 -100 124z"/>
<path d="M8169 525 c-6 -45 0 -127 10 -121 3 2 6 -12 7 -32 1 -36 10 -116 35
-290 l12 -82 38 0 c35 0 39 2 39 26 0 15 -8 33 -17 40 -17 12 -17 14 1 27 19
14 18 15 -9 51 -36 47 -76 126 -64 126 16 0 10 44 -10 74 -16 24 -17 31 -6 42
11 12 11 19 -3 46 -9 18 -19 56 -22 83 l-6 50 -5 -40z"/>
</g>
</svg>
